<svg xmlns="http://www.w3.org/2000/svg"
    width="auto"
    height="auto"
    preserveAspectRatio="xMidYMid meet"
    viewBox="0 0 24 24"
    class="Svg-ytk21e-0 eqtHWV">
    <path d="M5.286 6H7.25a1 1 0 110 2H2V2.75a1 1 0 112 0v1.694A10.97 10.97 0 0111.994 1c6.075 0 11 4.925 11 11a10.99 10.99 0 01-4.943 9.183 1 1 0 11-1.102-1.668A9 9 0 105.286 6zm-3.917 7.518c1.005 0 1.591-.666 1.591-1.217h1.6v9.74h-1.6v-6.923H1v-1.6h.369z"></path>
    <path d="M7.343 12.41h4.84v1.6H8.616l-.362 1.578a3.53 3.53 0 011.132-.186c1.914 0 3.484 1.532 3.484 3.446 0 1.914-1.57 3.446-3.484 3.446-1.76 0-3.229-1.296-3.454-2.995l1.586-.21c.119.896.903 1.605 1.868 1.605 1.052 0 1.884-.838 1.884-1.846 0-1.009-.832-1.846-1.884-1.846-.632 0-1.19.304-1.53.77l-.012.015-.248.307-1.402-.681 1.148-5.004z"></path>
</svg>
