<svg xmlns="http://www.w3.org/2000/svg"
  height="32"
  width="32"
  viewBox="0 0 24 24"
  class="Svg-ytk21e-0 eqtHWV">
  <path d="M18.714 6H16.75a1 1 0 100 2H22V2.75a1 1 0 10-2 0v1.694A10.97 10.97 0 0012.006 1c-6.075 0-11 4.925-11 11a10.99 10.99 0 004.943 9.183 1 1 0 101.102-1.668A9 9 0 1118.714 6z"></path>
  <path d="M10.639 13.518c1.005 0 1.591-.666 1.591-1.217h1.6v9.74h-1.6v-6.923h-1.96v-1.6h.369zm5.974-1.108h4.84v1.6h-3.566l-.362 1.578a3.53 3.53 0 011.132-.186c1.914 0 3.484 1.532 3.484 3.446 0 1.914-1.57 3.445-3.484 3.445-1.76 0-3.229-1.295-3.454-2.994l1.586-.21c.119.896.903 1.604 1.868 1.604 1.052 0 1.884-.837 1.884-1.845 0-1.009-.832-1.846-1.884-1.846-.633 0-1.19.304-1.53.77l-.012.015-.248.307-1.402-.681 1.148-5.004z"></path>
</svg>
