<svg version="1.1"
  id="svg507"
  width="100%"
  height="100%"
  preserveAspectRatio="xMidYMid meet"
  viewBox="0 0 150 105"
  xmlns="http://www.w3.org/2000/svg"
  xmlns:svg="http://www.w3.org/2000/svg">
  <defs />
  <g transform="translate(183.24663,-1.3701799)">
    <path d="m -138.95761,104.919 c -25.74635,-1.12717 -30.87768,-2.10265 -36.35641,-6.911446 -5.81276,-5.10199 -7.93261,-17.028413 -7.93261,-44.629414 0,-36.534879 3.4978,-46.2972715 17.73084,-49.4869605 12.69439,-2.8448716 77.398661,-3.44415592 103.744418,-0.960871 21.37936,2.015166 25.02761,6.817569 26.6612,35.0957525 0.91704,15.874313 0.0397,39.26192 -1.80649,48.154809 -2.48538,11.972024 -8.06072,16.05024 -24.04878,17.59115 -14.826496,1.42895 -57.288038,2.0534 -77.992168,1.14698 z"
      id="path57738"
      class="UnoptimicedTransforms"
      style="fill:#ffffff" />
    <path style="display:inline;fill:#ff0000"
      d="m -138.95761,104.919 c -25.74635,-1.12717 -30.87768,-2.10265 -36.35641,-6.911446 -5.81276,-5.10199 -7.93261,-17.028413 -7.93261,-44.629414 0,-36.534879 3.4978,-46.2972715 17.73084,-49.4869605 12.69439,-2.8448716 77.398661,-3.44415592 103.744418,-0.960871 21.37936,2.015166 25.02761,6.817569 26.6612,35.0957525 0.91704,15.874313 0.0397,39.26192 -1.80649,48.154809 -2.48538,11.972024 -8.06072,16.05024 -24.04878,17.59115 -14.826496,1.42895 -57.288038,2.0534 -77.992168,1.14698 z m 53.829691,-29.79086 c 1.38664,-2.69607 0.38991,-4.105031 -4.74459,-6.706883 -7.50572,-3.803438 -15.930281,-5.552842 -26.229451,-5.446691 -12.80349,0.131962 -20.26283,1.753956 -20.65391,4.491079 -0.48782,3.414325 1.92827,4.621857 6.93693,3.466992 7.68891,-1.772856 22.92792,-1.283903 30.006001,0.962761 3.49544,1.109491 7.48034,2.668545 8.85534,3.464564 3.32927,1.927389 4.74818,1.870959 5.82968,-0.231822 z m 5.59888,-12.821429 c 3.090691,-3.090674 1.501511,-5.470489 -6.25949,-9.373668 -10.9106,-5.487191 -31.916141,-7.773453 -45.369861,-4.938099 -6.53254,1.376725 -7.98488,2.484664 -7.59978,5.7976 0.34079,2.931652 0.37826,2.934941 17.8357,1.565413 11.54521,-0.905717 23.545441,1.155394 31.964871,5.490162 6.557,3.375897 7.38341,3.503742 9.42856,1.458592 z m 7.591661,-16.466344 c 1.73352,-3.239128 0.20161,-5.816125 -5.03483,-8.469633 -11.446951,-5.800605 -30.789272,-8.818447 -47.195492,-7.363572 -15.09855,1.338914 -19.93287,3.694472 -18.27866,8.906427 0.87503,2.756973 4.38152,3.34546 11.15696,1.872448 7.865,-1.709889 26.1712,-1.480323 35.132131,0.440569 4.01518,0.860707 9.64017,2.671903 12.49998,4.02488 6.566931,3.106795 10.272711,3.292997 11.719911,0.588881 z"
      id="path51223"
      class="UnoptimicedTransforms" />
  </g>
</svg>
